<svg width="25" height="24" viewBox="0 0 25 24" fill="none" xmlns="http://www.w3.org/2000/svg">
<path d="M19.9473 4H18.9484V2H16.9506V4H8.95937V2H6.96156V4H5.96265C4.85387 4 3.97483 4.9 3.97483 6L3.96484 20C3.96484 21.1 4.85387 22 5.96265 22H19.9473C21.0461 22 21.9451 21.1 21.9451 20V6C21.9451 4.9 21.0461 4 19.9473 4ZM19.9473 20H5.96265V10H19.9473V20ZM19.9473 8H5.96265V6H19.9473V8ZM9.95827 14H7.96046V12H9.95827V14ZM13.9539 14H11.9561V12H13.9539V14ZM17.9495 14H15.9517V12H17.9495V14ZM9.95827 18H7.96046V16H9.95827V18ZM13.9539 18H11.9561V16H13.9539V18ZM17.9495 18H15.9517V16H17.9495V18Z" fill="black"/>
</svg>
