<svg width="18" height="18" viewBox="0 0 18 18" fill="none" xmlns="http://www.w3.org/2000/svg">
<path id="Vector" d="M9 0C4.032 0 0 4.032 0 9C0 13.968 4.032 18 9 18C13.968 18 18 13.968 18 9C18 4.032 13.968 0 9 0ZM9 16.2C5.031 16.2 1.8 12.969 1.8 9C1.8 5.031 5.031 1.8 9 1.8C12.969 1.8 16.2 5.031 16.2 9C16.2 12.969 12.969 16.2 9 16.2ZM9.801 8.19C8.199 7.659 7.425 7.326 7.425 6.48C7.425 5.562 8.424 5.229 9.054 5.229C10.233 5.229 10.665 6.12 10.764 6.435L12.186 5.832C12.051 5.436 11.448 4.113 9.792 3.825V2.7H8.217V3.834C5.877 4.338 5.859 6.399 5.859 6.498C5.859 8.541 7.884 9.117 8.874 9.477C10.296 9.981 10.926 10.44 10.926 11.304C10.926 12.321 9.981 12.753 9.144 12.753C7.506 12.753 7.038 11.07 6.984 10.872L5.49 11.475C6.057 13.446 7.542 13.977 8.208 14.139V15.3H9.783V14.184C10.251 14.103 12.501 13.653 12.501 11.286C12.51 10.035 11.961 8.937 9.801 8.19Z" fill="black"/>
</svg>
